<mxfile host="app.diagrams.net" modified="2021-05-12T18:04:13.689Z" agent="5.0 (Macintosh; Intel Mac OS X 10_15_7) AppleWebKit/605.1.15 (KHTML, like Gecko) Version/14.1 Safari/605.1.15" etag="sJZ3ylrS8gSfU8qoH2eG" version="14.6.12" type="github" pages="2">
  <diagram id="obDHf5fjiP7RxPv_muRw" name="Mobile">
    <mxGraphModel dx="946" dy="645" grid="0" gridSize="10" guides="1" tooltips="1" connect="1" arrows="1" fold="1" page="1" pageScale="1" pageWidth="850" pageHeight="1100" background="#FF1CFF" math="0" shadow="0">
      <root>
        <mxCell id="0" />
        <mxCell id="1" parent="0" />
        <mxCell id="fR8F694I44yKHTdiv8ix-5" value="" style="rounded=0;whiteSpace=wrap;html=1;sketch=0;fillColor=#FFE0FF;glass=1;" parent="1" vertex="1">
          <mxGeometry x="4" y="3" width="645" height="197" as="geometry" />
        </mxCell>
        <mxCell id="lHsWCVv1NHnYQvPKpTml-6" value="&lt;font style=&quot;font-size: 23px&quot;&gt;Wagner Charles&lt;/font&gt;" style="text;html=1;strokeColor=none;fillColor=none;align=center;verticalAlign=middle;whiteSpace=wrap;rounded=0;" parent="1" vertex="1">
          <mxGeometry x="340" y="10" width="250" height="40" as="geometry" />
        </mxCell>
        <mxCell id="lHsWCVv1NHnYQvPKpTml-8" value="&lt;font style=&quot;font-size: 14px&quot;&gt;&lt;b&gt;About me&lt;/b&gt;:&lt;i&gt;&amp;nbsp;&lt;span style=&quot;color: rgb(85 , 85 , 85) ; font-family: &amp;#34;roboto&amp;#34; , sans-serif ; background-color: rgb(255 , 255 , 255)&quot;&gt;&lt;font style=&quot;font-size: 14px&quot;&gt;I am Junior Web developer able to build a Web presence from the ground up - from concept, navigation, layout and programming to UX and SEO. Skilled at writing well-designed, testable and efficient code using current best practices in Web development. Fast learner, hard worker and team player who is proficient in an array of scripting languages and multimedia Web tools.&lt;/font&gt;&lt;/span&gt;&lt;/i&gt;&lt;/font&gt;" style="text;html=1;strokeColor=none;fillColor=none;align=right;verticalAlign=middle;whiteSpace=wrap;rounded=0;" parent="1" vertex="1">
          <mxGeometry x="4" y="225" width="642" height="80" as="geometry" />
        </mxCell>
        <mxCell id="lHsWCVv1NHnYQvPKpTml-11" value="" style="shape=image;html=1;verticalAlign=top;verticalLabelPosition=bottom;labelBackgroundColor=#ffffff;imageAspect=0;aspect=fixed;image=https://cdn1.iconfinder.com/data/icons/logotypes/32/github-128.png" parent="1" vertex="1">
          <mxGeometry x="370" y="60" width="30" height="30" as="geometry" />
        </mxCell>
        <mxCell id="lHsWCVv1NHnYQvPKpTml-12" value="" style="dashed=0;outlineConnect=0;html=1;align=center;labelPosition=center;verticalLabelPosition=bottom;verticalAlign=top;shape=mxgraph.webicons.linkedin;fillColor=#0095DB;gradientColor=#006391" parent="1" vertex="1">
          <mxGeometry x="370" y="101" width="30" height="30" as="geometry" />
        </mxCell>
        <mxCell id="lHsWCVv1NHnYQvPKpTml-14" value="" style="dashed=0;outlineConnect=0;html=1;align=center;labelPosition=center;verticalLabelPosition=bottom;verticalAlign=top;shape=mxgraph.weblogos.phone;fillColor=#36BE0F;strokeColor=none" parent="1" vertex="1">
          <mxGeometry x="375" y="133" width="20" height="20" as="geometry" />
        </mxCell>
        <mxCell id="lHsWCVv1NHnYQvPKpTml-15" value="" style="verticalLabelPosition=bottom;shadow=0;dashed=0;align=center;html=1;verticalAlign=top;shape=mxgraph.electrical.opto_electronics.photo_resistor_3;" parent="1" vertex="1">
          <mxGeometry width="200" height="180" as="geometry" />
        </mxCell>
        <mxCell id="lHsWCVv1NHnYQvPKpTml-16" value="" style="shape=link;html=1;" parent="1" edge="1">
          <mxGeometry width="100" relative="1" as="geometry">
            <mxPoint y="200" as="sourcePoint" />
            <mxPoint x="649" y="200" as="targetPoint" />
          </mxGeometry>
        </mxCell>
        <mxCell id="BsXEIcGalgrugrsCk9hs-1" value="" style="dashed=0;outlineConnect=0;html=1;align=center;labelPosition=center;verticalLabelPosition=bottom;verticalAlign=top;shape=mxgraph.webicons.myspace;fillColor=#3C69E2;gradientColor=#101B54" parent="1" vertex="1">
          <mxGeometry x="370" y="161" width="33" height="36" as="geometry" />
        </mxCell>
        <mxCell id="BsXEIcGalgrugrsCk9hs-2" value="Projects" style="swimlane;fontStyle=0;childLayout=stackLayout;horizontal=1;startSize=26;horizontalStack=0;resizeParent=1;resizeParentMax=0;resizeLast=0;collapsible=1;marginBottom=0;" parent="1" vertex="1">
          <mxGeometry x="214" y="336" width="140" height="182" as="geometry">
            <mxRectangle x="9" y="340" width="70" height="26" as="alternateBounds" />
          </mxGeometry>
        </mxCell>
        <mxCell id="BsXEIcGalgrugrsCk9hs-3" value="Item 1(hyperlinks)" style="text;strokeColor=none;fillColor=none;align=left;verticalAlign=top;spacingLeft=4;spacingRight=4;overflow=hidden;rotatable=0;points=[[0,0.5],[1,0.5]];portConstraint=eastwest;" parent="BsXEIcGalgrugrsCk9hs-2" vertex="1">
          <mxGeometry y="26" width="140" height="26" as="geometry" />
        </mxCell>
        <mxCell id="BsXEIcGalgrugrsCk9hs-4" value="Item 2" style="text;strokeColor=none;fillColor=none;align=left;verticalAlign=top;spacingLeft=4;spacingRight=4;overflow=hidden;rotatable=0;points=[[0,0.5],[1,0.5]];portConstraint=eastwest;" parent="BsXEIcGalgrugrsCk9hs-2" vertex="1">
          <mxGeometry y="52" width="140" height="26" as="geometry" />
        </mxCell>
        <mxCell id="fR8F694I44yKHTdiv8ix-1" value="Item 3" style="text;strokeColor=none;fillColor=none;align=left;verticalAlign=top;spacingLeft=4;spacingRight=4;overflow=hidden;rotatable=0;points=[[0,0.5],[1,0.5]];portConstraint=eastwest;" parent="BsXEIcGalgrugrsCk9hs-2" vertex="1">
          <mxGeometry y="78" width="140" height="26" as="geometry" />
        </mxCell>
        <mxCell id="fR8F694I44yKHTdiv8ix-4" value="Item 4" style="text;strokeColor=none;fillColor=none;align=left;verticalAlign=top;spacingLeft=4;spacingRight=4;overflow=hidden;rotatable=0;points=[[0,0.5],[1,0.5]];portConstraint=eastwest;" parent="BsXEIcGalgrugrsCk9hs-2" vertex="1">
          <mxGeometry y="104" width="140" height="26" as="geometry" />
        </mxCell>
        <mxCell id="fR8F694I44yKHTdiv8ix-3" value="Item 5" style="text;strokeColor=none;fillColor=none;align=left;verticalAlign=top;spacingLeft=4;spacingRight=4;overflow=hidden;rotatable=0;points=[[0,0.5],[1,0.5]];portConstraint=eastwest;" parent="BsXEIcGalgrugrsCk9hs-2" vertex="1">
          <mxGeometry y="130" width="140" height="26" as="geometry" />
        </mxCell>
        <mxCell id="fR8F694I44yKHTdiv8ix-2" value="Item 6" style="text;strokeColor=none;fillColor=none;align=left;verticalAlign=top;spacingLeft=4;spacingRight=4;overflow=hidden;rotatable=0;points=[[0,0.5],[1,0.5]];portConstraint=eastwest;" parent="BsXEIcGalgrugrsCk9hs-2" vertex="1">
          <mxGeometry y="156" width="140" height="26" as="geometry" />
        </mxCell>
      </root>
    </mxGraphModel>
  </diagram>
  <diagram name="Desktop" id="744fGUMP7UEa5sI1rUSe">
    <mxGraphModel dx="946" dy="645" grid="0" gridSize="10" guides="1" tooltips="1" connect="1" arrows="1" fold="1" page="1" pageScale="1" pageWidth="850" pageHeight="1100" background="#2C14FF" math="0" shadow="0">
      <root>
        <mxCell id="N2wIshRWPnmV0lwpqX4d-0" />
        <mxCell id="N2wIshRWPnmV0lwpqX4d-1" parent="N2wIshRWPnmV0lwpqX4d-0" />
        <mxCell id="gyL5PzZa1Y1WPTj4Rpu_-0" value="" style="rounded=0;whiteSpace=wrap;html=1;glass=1;sketch=0;fillColor=#6666FF;" parent="N2wIshRWPnmV0lwpqX4d-1" vertex="1">
          <mxGeometry y="7" width="847" height="264" as="geometry" />
        </mxCell>
        <mxCell id="N2wIshRWPnmV0lwpqX4d-2" value="&lt;font style=&quot;font-size: 23px&quot;&gt;Wagner Charles&lt;/font&gt;" style="text;html=1;strokeColor=none;fillColor=none;align=center;verticalAlign=middle;whiteSpace=wrap;rounded=0;" parent="N2wIshRWPnmV0lwpqX4d-1" vertex="1">
          <mxGeometry x="421" width="393" height="40" as="geometry" />
        </mxCell>
        <mxCell id="N2wIshRWPnmV0lwpqX4d-3" value="&lt;font style=&quot;font-size: 14px&quot;&gt;&lt;b&gt;About me&lt;/b&gt;:&lt;i&gt;&amp;nbsp;&lt;span style=&quot;color: rgb(85 , 85 , 85) ; font-family: &amp;#34;roboto&amp;#34; , sans-serif ; background-color: rgb(255 , 255 , 255)&quot;&gt;&lt;font style=&quot;font-size: 14px&quot;&gt;I am Junior Web developer able to build a Web presence from the ground up - from concept, navigation, layout and programming to UX and SEO. Skilled at writing well-designed, testable and efficient code using current best practices in Web development. Fast learner, hard worker and team player who is proficient in an array of scripting languages and multimedia Web tools.&lt;/font&gt;&lt;/span&gt;&lt;/i&gt;&lt;/font&gt;" style="text;html=1;strokeColor=none;fillColor=none;align=center;verticalAlign=middle;whiteSpace=wrap;rounded=0;" parent="N2wIshRWPnmV0lwpqX4d-1" vertex="1">
          <mxGeometry y="223" width="837" height="173" as="geometry" />
        </mxCell>
        <mxCell id="N2wIshRWPnmV0lwpqX4d-4" value="" style="shape=image;html=1;verticalAlign=top;verticalLabelPosition=bottom;labelBackgroundColor=#ffffff;imageAspect=0;aspect=fixed;image=https://cdn1.iconfinder.com/data/icons/logotypes/32/github-128.png" parent="N2wIshRWPnmV0lwpqX4d-1" vertex="1">
          <mxGeometry x="496" y="57" width="30" height="30" as="geometry" />
        </mxCell>
        <mxCell id="N2wIshRWPnmV0lwpqX4d-5" value="" style="dashed=0;outlineConnect=0;html=1;align=center;labelPosition=center;verticalLabelPosition=bottom;verticalAlign=top;shape=mxgraph.webicons.linkedin;fillColor=#0095DB;gradientColor=#006391" parent="N2wIshRWPnmV0lwpqX4d-1" vertex="1">
          <mxGeometry x="496" y="103" width="30" height="30" as="geometry" />
        </mxCell>
        <mxCell id="N2wIshRWPnmV0lwpqX4d-6" value="" style="dashed=0;outlineConnect=0;html=1;align=center;labelPosition=center;verticalLabelPosition=bottom;verticalAlign=top;shape=mxgraph.weblogos.phone;fillColor=#36BE0F;strokeColor=none" parent="N2wIshRWPnmV0lwpqX4d-1" vertex="1">
          <mxGeometry x="501" y="156" width="20" height="20" as="geometry" />
        </mxCell>
        <mxCell id="N2wIshRWPnmV0lwpqX4d-7" value="" style="verticalLabelPosition=bottom;shadow=0;dashed=0;align=center;html=1;verticalAlign=top;shape=mxgraph.electrical.opto_electronics.photo_resistor_3;" parent="N2wIshRWPnmV0lwpqX4d-1" vertex="1">
          <mxGeometry width="314" height="262" as="geometry" />
        </mxCell>
        <mxCell id="N2wIshRWPnmV0lwpqX4d-8" value="" style="shape=link;html=1;" parent="N2wIshRWPnmV0lwpqX4d-1" edge="1">
          <mxGeometry width="100" relative="1" as="geometry">
            <mxPoint x="1" y="267" as="sourcePoint" />
            <mxPoint x="849" y="267" as="targetPoint" />
          </mxGeometry>
        </mxCell>
        <mxCell id="N2wIshRWPnmV0lwpqX4d-9" value="" style="dashed=0;outlineConnect=0;html=1;align=center;labelPosition=center;verticalLabelPosition=bottom;verticalAlign=top;shape=mxgraph.webicons.myspace;fillColor=#3C69E2;gradientColor=#101B54" parent="N2wIshRWPnmV0lwpqX4d-1" vertex="1">
          <mxGeometry x="502.5" y="198" width="33" height="36" as="geometry" />
        </mxCell>
        <mxCell id="sVuZhUBQDEfLnpeRY_kz-0" value="Projects" style="rounded=0;whiteSpace=wrap;html=1;sketch=0;" parent="N2wIshRWPnmV0lwpqX4d-1" vertex="1">
          <mxGeometry x="28" y="398" width="772" height="60" as="geometry" />
        </mxCell>
        <mxCell id="sVuZhUBQDEfLnpeRY_kz-1" value="First" style="rounded=1;whiteSpace=wrap;html=1;sketch=0;" parent="N2wIshRWPnmV0lwpqX4d-1" vertex="1">
          <mxGeometry x="16" y="536" width="282" height="228" as="geometry" />
        </mxCell>
        <mxCell id="sVuZhUBQDEfLnpeRY_kz-2" value="Second" style="rounded=1;whiteSpace=wrap;html=1;sketch=0;" parent="N2wIshRWPnmV0lwpqX4d-1" vertex="1">
          <mxGeometry x="334" y="536" width="223" height="219" as="geometry" />
        </mxCell>
        <mxCell id="sVuZhUBQDEfLnpeRY_kz-3" value="Third" style="rounded=1;whiteSpace=wrap;html=1;sketch=0;" parent="N2wIshRWPnmV0lwpqX4d-1" vertex="1">
          <mxGeometry x="593" y="533" width="233" height="221" as="geometry" />
        </mxCell>
        <mxCell id="sVuZhUBQDEfLnpeRY_kz-4" value="Fourth" style="rounded=1;whiteSpace=wrap;html=1;sketch=0;" parent="N2wIshRWPnmV0lwpqX4d-1" vertex="1">
          <mxGeometry x="19" y="819" width="294" height="236" as="geometry" />
        </mxCell>
        <mxCell id="sVuZhUBQDEfLnpeRY_kz-5" value="Fifth" style="rounded=1;whiteSpace=wrap;html=1;sketch=0;" parent="N2wIshRWPnmV0lwpqX4d-1" vertex="1">
          <mxGeometry x="342" y="822" width="229" height="241" as="geometry" />
        </mxCell>
        <mxCell id="sVuZhUBQDEfLnpeRY_kz-6" value="Sixth" style="rounded=1;whiteSpace=wrap;html=1;sketch=0;" parent="N2wIshRWPnmV0lwpqX4d-1" vertex="1">
          <mxGeometry x="596" y="824" width="238" height="241" as="geometry" />
        </mxCell>
        <mxCell id="tDSBZfU9vlX9iijoPHY8-0" value="" style="rounded=0;whiteSpace=wrap;html=1;glass=1;sketch=0;fillColor=#6666FF;" vertex="1" parent="N2wIshRWPnmV0lwpqX4d-1">
          <mxGeometry x="101" y="555" width="120" height="60" as="geometry" />
        </mxCell>
      </root>
    </mxGraphModel>
  </diagram>
</mxfile>
